<svg height="496pt" viewBox="-72 0 496 496" width="496pt" xmlns="http://www.w3.org/2000/svg" fill="#fff"><path d="m112 200h64v16h-64zm0 0"/><path d="m112 232h64v16h-64zm0 0"/><path d="m112 264h64v16h-64zm0 0"/><path d="m224 200h64v16h-64zm0 0"/><path d="m224 232h64v16h-64zm0 0"/><path d="m224 264h64v16h-64zm0 0"/><path d="m344 176h-24v-24c0-2.320312-1.007812-4.519531-2.761719-6.046875-1.75-1.511719-4.085937-2.210937-6.375-1.875l-110.863281 15.84375-110.863281-15.84375c-2.28125-.335937-4.625.363281-6.375 1.875-1.753907 1.527344-2.761719 3.726563-2.761719 6.046875v24h-24c-4.425781 0-8 3.574219-8 8v176c0 4.425781 3.574219 8 8 8h200v88c0 13.230469-10.769531 24-24 24h-8v-8c0-13.230469-10.769531-24-24-24h-128c-13.230469 0-24 10.769531-24 24v8h-8c-13.230469 0-24-10.769531-24-24v-416c0-9.902344 6.03125-18.414062 14.609375-22.078125l43.734375 43.734375c1.496094 1.503906 3.527344 2.34375 5.65625 2.34375h112c2.128906 0 4.160156-.839844 5.65625-2.34375l43.734375-43.734375c8.578125 3.664063 14.609375 12.175781 14.609375 22.078125v96h16v-96c0-22.054688-17.945312-40-40-40h-192c-22.054688 0-40 17.945312-40 40v416c0 22.054688 17.945312 40 40 40h192c22.054688 0 40-17.945312 40-40v-88h72c4.425781 0 8-3.574219 8-8v-176c0-4.425781-3.574219-8-8-8zm-155.3125-128h-105.375l-32-32h169.375zm-124.6875 424c0-4.414062 3.585938-8 8-8h128c4.414062 0 8 3.585938 8 8v8h-144zm144-297.0625 96-13.714844v143.832032l-96 13.714843zm-112-13.714844 96 13.714844v143.832031l-96-13.714843zm240 190.777344h-272v-160h16v120c0 3.984375 2.929688 7.359375 6.863281 7.921875l112 16c.375.054687.761719.078125 1.136719.078125s.761719-.023438 1.136719-.078125l112-16c3.933593-.5625 6.863281-3.9375 6.863281-7.921875v-120h16zm0 0"/></svg>